<svg xmlns="http://www.w3.org/2000/svg" xmlns:xlink="http://www.w3.org/1999/xlink" width="500" zoomAndPan="magnify" viewBox="0 0 375 374.999991" height="500" preserveAspectRatio="xMidYMid meet" version="1.0"><defs><g/><clipPath id="a805fe32e5"><path d="M 137 162 L 238 162 L 238 238.285156 L 137 238.285156 Z M 137 162 " clip-rule="nonzero"/></clipPath><clipPath id="c7fe9d5e21"><path d="M 82.128906 148 L 190 148 L 190 229 L 82.128906 229 Z M 82.128906 148 " clip-rule="nonzero"/></clipPath><clipPath id="c8f4056b04"><path d="M 137 52.859375 L 237 52.859375 L 237 129 L 137 129 Z M 137 52.859375 " clip-rule="nonzero"/></clipPath><clipPath id="aeadd97a86"><path d="M 185 62 L 292.410156 62 L 292.410156 143 L 185 143 Z M 185 62 " clip-rule="nonzero"/></clipPath><clipPath id="c0ddc89643"><path d="M 137 162 L 238 162 L 238 237.730469 L 137 237.730469 Z M 137 162 " clip-rule="nonzero"/></clipPath><clipPath id="04e86de314"><path d="M 82.222656 148 L 190 148 L 190 229 L 82.222656 229 Z M 82.222656 148 " clip-rule="nonzero"/></clipPath><clipPath id="2145e8c4d4"><path d="M 137 52.300781 L 237 52.300781 L 237 128 L 137 128 Z M 137 52.300781 " clip-rule="nonzero"/></clipPath><clipPath id="1b1d268685"><path d="M 185 61 L 292.503906 61 L 292.503906 142 L 185 142 Z M 185 61 " clip-rule="nonzero"/></clipPath></defs><rect x="-37.5" width="450" fill="#ffffff" y="-37.499999" height="449.999989" fill-opacity="1"/><rect x="-37.5" width="450" fill="#000000" y="-37.499999" height="449.999989" fill-opacity="1"/><g fill="#ffffff" fill-opacity="1"><g transform="translate(64.393818, 332.049644)"><g><path d="M 14 -16.328125 L 14 0 L 12.359375 0 L 12.359375 -7.640625 L 3.5 -7.640625 L 3.5 0 L 1.875 0 L 1.875 -16.328125 L 3.5 -16.328125 L 3.5 -9 L 12.359375 -9 L 12.359375 -16.328125 Z M 14 -16.328125 "/></g></g></g><g fill="#ffffff" fill-opacity="1"><g transform="translate(92.121855, 332.049644)"><g><path d="M 3.5 -15 L 3.5 -8.90625 L 9.6875 -8.90625 L 9.6875 -7.546875 L 3.5 -7.546875 L 3.5 -1.359375 L 10.390625 -1.359375 L 10.390625 0 L 1.875 0 L 1.875 -16.34375 L 10.390625 -16.34375 L 10.390625 -15 Z M 3.5 -15 "/></g></g></g><g fill="#ffffff" fill-opacity="1"><g transform="translate(115.739348, 332.049644)"><g><path d="M 11.328125 -3.875 L 3.90625 -3.875 L 2.46875 0 L 0.75 0 L 6.703125 -16.125 L 8.546875 -16.125 L 14.484375 0 L 12.75 0 Z M 10.84375 -5.234375 L 7.609375 -14.0625 L 4.390625 -5.234375 Z M 10.84375 -5.234375 "/></g></g></g><g fill="#ffffff" fill-opacity="1"><g transform="translate(142.836796, 332.049644)"><g><path d="M 3.5 -1.328125 L 9.359375 -1.328125 L 9.359375 0 L 1.875 0 L 1.875 -16.328125 L 3.5 -16.328125 Z M 3.5 -1.328125 "/></g></g></g><g fill="#ffffff" fill-opacity="1"><g transform="translate(164.53914, 332.049644)"><g><path d="M 11.421875 -16.328125 L 11.421875 -14.96875 L 6.890625 -14.96875 L 6.890625 0 L 5.25 0 L 5.25 -14.96875 L 0.703125 -14.96875 L 0.703125 -16.328125 Z M 11.421875 -16.328125 "/></g></g></g><g fill="#ffffff" fill-opacity="1"><g transform="translate(188.553671, 332.049644)"><g><path d="M 14 -16.328125 L 14 0 L 12.359375 0 L 12.359375 -7.640625 L 3.5 -7.640625 L 3.5 0 L 1.875 0 L 1.875 -16.328125 L 3.5 -16.328125 L 3.5 -9 L 12.359375 -9 L 12.359375 -16.328125 Z M 14 -16.328125 "/></g></g></g><g fill="#ffffff" fill-opacity="1"><g transform="translate(216.281706, 332.049644)"><g><path d="M 1.125 -8.171875 C 1.125 -9.773438 1.472656 -11.210938 2.171875 -12.484375 C 2.867188 -13.753906 3.828125 -14.742188 5.046875 -15.453125 C 6.265625 -16.160156 7.617188 -16.515625 9.109375 -16.515625 C 10.929688 -16.515625 12.492188 -16.082031 13.796875 -15.21875 C 15.097656 -14.351562 16.039062 -13.132812 16.625 -11.5625 L 14.71875 -11.5625 C 14.25 -12.664062 13.535156 -13.53125 12.578125 -14.15625 C 11.617188 -14.78125 10.460938 -15.09375 9.109375 -15.09375 C 7.910156 -15.09375 6.832031 -14.8125 5.875 -14.25 C 4.914062 -13.6875 4.160156 -12.878906 3.609375 -11.828125 C 3.066406 -10.773438 2.796875 -9.554688 2.796875 -8.171875 C 2.796875 -6.785156 3.066406 -5.570312 3.609375 -4.53125 C 4.160156 -3.488281 4.914062 -2.6875 5.875 -2.125 C 6.832031 -1.5625 7.910156 -1.28125 9.109375 -1.28125 C 10.460938 -1.28125 11.617188 -1.585938 12.578125 -2.203125 C 13.535156 -2.816406 14.25 -3.671875 14.71875 -4.765625 L 16.625 -4.765625 C 16.039062 -3.203125 15.09375 -1.992188 13.78125 -1.140625 C 12.46875 -0.285156 10.910156 0.140625 9.109375 0.140625 C 7.617188 0.140625 6.265625 -0.210938 5.046875 -0.921875 C 3.828125 -1.628906 2.867188 -2.613281 2.171875 -3.875 C 1.472656 -5.132812 1.125 -6.566406 1.125 -8.171875 Z M 1.125 -8.171875 "/></g></g></g><g fill="#ffffff" fill-opacity="1"><g transform="translate(246.158438, 332.049644)"><g><path d="M 11.328125 -3.875 L 3.90625 -3.875 L 2.46875 0 L 0.75 0 L 6.703125 -16.125 L 8.546875 -16.125 L 14.484375 0 L 12.75 0 Z M 10.84375 -5.234375 L 7.609375 -14.0625 L 4.390625 -5.234375 Z M 10.84375 -5.234375 "/></g></g></g><g fill="#ffffff" fill-opacity="1"><g transform="translate(273.255881, 332.049644)"><g><path d="M 10.5625 0 L 6.515625 -6.828125 L 3.5 -6.828125 L 3.5 0 L 1.875 0 L 1.875 -16.328125 L 6.78125 -16.328125 C 8.59375 -16.328125 9.96875 -15.890625 10.90625 -15.015625 C 11.851562 -14.148438 12.328125 -13.007812 12.328125 -11.59375 C 12.328125 -10.40625 11.988281 -9.394531 11.3125 -8.5625 C 10.632812 -7.726562 9.632812 -7.1875 8.3125 -6.9375 L 12.515625 0 Z M 3.5 -8.15625 L 6.796875 -8.15625 C 8.078125 -8.15625 9.039062 -8.460938 9.6875 -9.078125 C 10.332031 -9.703125 10.65625 -10.539062 10.65625 -11.59375 C 10.65625 -12.664062 10.34375 -13.492188 9.71875 -14.078125 C 9.09375 -14.660156 8.113281 -14.953125 6.78125 -14.953125 L 3.5 -14.953125 Z M 3.5 -8.15625 "/></g></g></g><g fill="#ffffff" fill-opacity="1"><g transform="translate(298.835231, 332.049644)"><g><path d="M 3.5 -15 L 3.5 -8.90625 L 9.6875 -8.90625 L 9.6875 -7.546875 L 3.5 -7.546875 L 3.5 -1.359375 L 10.390625 -1.359375 L 10.390625 0 L 1.875 0 L 1.875 -16.34375 L 10.390625 -16.34375 L 10.390625 -15 Z M 3.5 -15 "/></g></g></g><path fill="#7f248d" d="M 231.664062 121.066406 C 227.304688 121.46875 223.195312 122.625 219.457031 124.394531 C 234.527344 124.746094 248.382812 134.523438 253.183594 149.6875 C 260.40625 172.492188 239.058594 206.824219 242.804688 234.835938 C 244.941406 208.578125 269.574219 181.59375 271.136719 158.753906 C 272.78125 159.8125 274.765625 160.355469 276.863281 160.164062 C 281.835938 159.707031 285.5 155.304688 285.039062 150.332031 C 284.582031 145.363281 280.175781 141.703125 275.203125 142.164062 C 272.796875 142.382812 270.707031 143.53125 269.234375 145.214844 C 263.882812 129.855469 248.601562 119.507812 231.664062 121.066406 " fill-opacity="1" fill-rule="nonzero"/><g clip-path="url(#a805fe32e5)"><path fill="#1082ce" d="M 230.707031 171.738281 C 228.179688 168.164062 225.121094 165.1875 221.71875 162.835938 C 228.949219 176.050781 227.402344 192.933594 216.660156 204.667969 C 200.507812 222.320312 160.078125 221.011719 137.667969 238.261719 C 161.5 226.980469 197.203125 234.804688 217.777344 224.738281 C 217.683594 226.6875 218.203125 228.679688 219.417969 230.394531 C 222.304688 234.472656 227.949219 235.4375 232.027344 232.554688 C 236.109375 229.675781 237.078125 224.035156 234.191406 219.960938 C 232.796875 217.988281 230.757812 216.753906 228.5625 216.320312 C 239.199219 204.007812 240.527344 185.613281 230.707031 171.738281 " fill-opacity="1" fill-rule="nonzero"/></g><g clip-path="url(#c7fe9d5e21)"><path fill="#40b93c" d="M 186.3125 196.242188 C 188.144531 192.269531 189.199219 188.132812 189.53125 184.011719 C 181.695312 196.878906 166.289062 203.980469 150.746094 200.554688 C 127.367188 195.402344 108.289062 159.761719 82.132812 148.996094 C 103.828125 163.976562 114.898438 198.78125 133.910156 211.554688 C 132.171875 212.445312 130.707031 213.894531 129.828125 215.804688 C 127.738281 220.335938 129.722656 225.707031 134.257812 227.792969 C 138.792969 229.882812 144.167969 227.902344 146.257812 223.367188 C 147.269531 221.175781 147.320312 218.792969 146.597656 216.675781 C 162.585938 219.730469 179.195312 211.675781 186.3125 196.242188 " fill-opacity="1" fill-rule="nonzero"/></g><path fill="#fbc108" d="M 142.875 170.078125 C 147.234375 169.675781 151.34375 168.519531 155.085938 166.75 C 140.015625 166.398438 126.15625 156.621094 121.355469 141.457031 C 114.132812 118.652344 135.480469 84.320312 131.738281 56.304688 C 129.597656 82.566406 104.964844 109.550781 103.402344 132.390625 C 101.761719 131.332031 99.773438 130.789062 97.679688 130.980469 C 92.703125 131.4375 89.042969 135.839844 89.5 140.8125 C 89.960938 145.78125 94.363281 149.441406 99.335938 148.980469 C 101.742188 148.761719 103.832031 147.613281 105.308594 145.929688 C 110.65625 161.289062 125.9375 171.636719 142.875 170.078125 " fill-opacity="1" fill-rule="nonzero"/><g clip-path="url(#c8f4056b04)"><path fill="#e91348" d="M 143.832031 119.40625 C 146.359375 122.980469 149.417969 125.957031 152.824219 128.308594 C 145.589844 115.09375 147.136719 98.210938 157.878906 86.476562 C 174.035156 68.824219 214.464844 70.132812 236.871094 52.882812 C 213.042969 64.164062 177.339844 56.339844 156.761719 66.40625 C 156.859375 64.457031 156.332031 62.464844 155.121094 60.75 C 152.238281 56.671875 146.59375 55.707031 142.511719 58.589844 C 138.433594 61.46875 137.464844 67.109375 140.347656 71.183594 C 141.742188 73.15625 143.785156 74.390625 145.980469 74.824219 C 135.339844 87.132812 134.011719 105.53125 143.832031 119.40625 " fill-opacity="1" fill-rule="nonzero"/></g><g clip-path="url(#aeadd97a86)"><path fill="#f1471d" d="M 188.226562 94.902344 C 186.394531 98.875 185.34375 103.011719 185.007812 107.132812 C 192.847656 94.265625 208.25 87.164062 223.792969 90.589844 C 247.171875 95.742188 266.25 131.382812 292.40625 142.148438 C 270.710938 127.167969 259.640625 92.359375 240.632812 79.589844 C 242.367188 78.699219 243.832031 77.25 244.710938 75.339844 C 246.804688 70.808594 244.820312 65.4375 240.28125 63.347656 C 235.746094 61.261719 230.371094 63.242188 228.28125 67.777344 C 227.273438 69.96875 227.222656 72.351562 227.941406 74.46875 C 211.953125 71.414062 195.347656 79.464844 188.226562 94.902344 " fill-opacity="1" fill-rule="nonzero"/></g><g fill="#000000" fill-opacity="1"><g transform="translate(7.04524, 296.981627)"><g><path d="M 33.484375 0 L 33.4375 -19.53125 L 23.859375 -3.4375 L 20.453125 -3.4375 L 10.921875 -19.109375 L 10.921875 0 L 3.859375 0 L 3.859375 -32.546875 L 10.09375 -32.546875 L 22.28125 -12.328125 L 34.265625 -32.546875 L 40.453125 -32.546875 L 40.546875 0 Z M 33.484375 0 "/></g></g></g><g fill="#000000" fill-opacity="1"><g transform="translate(53.164391, 296.981627)"><g><path d="M 25.296875 -6.96875 L 10.1875 -6.96875 L 7.296875 0 L -0.421875 0 L 14.09375 -32.546875 L 21.53125 -32.546875 L 36.078125 0 L 28.171875 0 Z M 22.921875 -12.6875 L 17.765625 -25.15625 L 12.59375 -12.6875 Z M 22.921875 -12.6875 "/></g></g></g><g fill="#000000" fill-opacity="1"><g transform="translate(90.496815, 296.981627)"><g><path d="M 33.71875 -32.546875 L 33.71875 0 L 27.53125 0 L 11.296875 -19.765625 L 11.296875 0 L 3.859375 0 L 3.859375 -32.546875 L 10.09375 -32.546875 L 26.265625 -12.78125 L 26.265625 -32.546875 Z M 33.71875 -32.546875 "/></g></g></g><g fill="#000000" fill-opacity="1"><g transform="translate(129.781852, 296.981627)"><g><path d="M 19.4375 0.5625 C 16.125 0.5625 13.125 -0.15625 10.4375 -1.59375 C 7.757812 -3.039062 5.648438 -5.039062 4.109375 -7.59375 C 2.578125 -10.15625 1.8125 -13.050781 1.8125 -16.28125 C 1.8125 -19.5 2.578125 -22.382812 4.109375 -24.9375 C 5.648438 -27.5 7.757812 -29.5 10.4375 -30.9375 C 13.125 -32.382812 16.140625 -33.109375 19.484375 -33.109375 C 22.304688 -33.109375 24.851562 -32.609375 27.125 -31.609375 C 29.40625 -30.617188 31.320312 -29.195312 32.875 -27.34375 L 28.046875 -22.875 C 25.835938 -25.414062 23.109375 -26.6875 19.859375 -26.6875 C 17.835938 -26.6875 16.035156 -26.242188 14.453125 -25.359375 C 12.878906 -24.484375 11.648438 -23.253906 10.765625 -21.671875 C 9.878906 -20.085938 9.4375 -18.289062 9.4375 -16.28125 C 9.4375 -14.257812 9.878906 -12.457031 10.765625 -10.875 C 11.648438 -9.300781 12.878906 -8.070312 14.453125 -7.1875 C 16.035156 -6.300781 17.835938 -5.859375 19.859375 -5.859375 C 23.109375 -5.859375 25.835938 -7.144531 28.046875 -9.71875 L 32.875 -5.25 C 31.320312 -3.363281 29.398438 -1.921875 27.109375 -0.921875 C 24.816406 0.0664062 22.257812 0.5625 19.4375 0.5625 Z M 19.4375 0.5625 "/></g></g></g><g fill="#000000" fill-opacity="1"><g transform="translate(165.580085, 296.981627)"><g><path d="M 33.71875 -32.546875 L 33.71875 0 L 26.171875 0 L 26.171875 -13.34375 L 11.390625 -13.34375 L 11.390625 0 L 3.859375 0 L 3.859375 -32.546875 L 11.390625 -32.546875 L 11.390625 -19.71875 L 26.171875 -19.71875 L 26.171875 -32.546875 Z M 33.71875 -32.546875 "/></g></g></g><g fill="#000000" fill-opacity="1"><g transform="translate(204.865114, 296.981627)"><g><path d="M 29.0625 -6.046875 L 29.0625 0 L 3.859375 0 L 3.859375 -32.546875 L 28.453125 -32.546875 L 28.453125 -26.5 L 11.34375 -26.5 L 11.34375 -19.4375 L 26.453125 -19.4375 L 26.453125 -13.578125 L 11.34375 -13.578125 L 11.34375 -6.046875 Z M 29.0625 -6.046875 "/></g></g></g><g fill="#000000" fill-opacity="1"><g transform="translate(237.780934, 296.981627)"><g><path d="M 14.546875 0.5625 C 11.972656 0.5625 9.484375 0.210938 7.078125 -0.484375 C 4.679688 -1.179688 2.753906 -2.085938 1.296875 -3.203125 L 3.859375 -8.875 C 5.253906 -7.851562 6.910156 -7.03125 8.828125 -6.40625 C 10.753906 -5.789062 12.675781 -5.484375 14.59375 -5.484375 C 16.738281 -5.484375 18.320312 -5.800781 19.34375 -6.4375 C 20.363281 -7.070312 20.875 -7.914062 20.875 -8.96875 C 20.875 -9.75 20.570312 -10.394531 19.96875 -10.90625 C 19.363281 -11.414062 18.585938 -11.820312 17.640625 -12.125 C 16.703125 -12.4375 15.425781 -12.78125 13.8125 -13.15625 C 11.332031 -13.75 9.300781 -14.335938 7.71875 -14.921875 C 6.132812 -15.515625 4.773438 -16.460938 3.640625 -17.765625 C 2.515625 -19.066406 1.953125 -20.800781 1.953125 -22.96875 C 1.953125 -24.863281 2.460938 -26.578125 3.484375 -28.109375 C 4.503906 -29.640625 6.046875 -30.851562 8.109375 -31.75 C 10.171875 -32.65625 12.691406 -33.109375 15.671875 -33.109375 C 17.742188 -33.109375 19.769531 -32.859375 21.75 -32.359375 C 23.738281 -31.867188 25.476562 -31.15625 26.96875 -30.21875 L 24.640625 -24.5 C 21.640625 -26.207031 18.632812 -27.0625 15.625 -27.0625 C 13.519531 -27.0625 11.960938 -26.71875 10.953125 -26.03125 C 9.941406 -25.351562 9.4375 -24.457031 9.4375 -23.34375 C 9.4375 -22.226562 10.015625 -21.398438 11.171875 -20.859375 C 12.335938 -20.316406 14.113281 -19.78125 16.5 -19.25 C 18.988281 -18.664062 21.019531 -18.078125 22.59375 -17.484375 C 24.175781 -16.890625 25.53125 -15.957031 26.65625 -14.6875 C 27.789062 -13.414062 28.359375 -11.695312 28.359375 -9.53125 C 28.359375 -7.675781 27.835938 -5.976562 26.796875 -4.4375 C 25.765625 -2.90625 24.207031 -1.6875 22.125 -0.78125 C 20.050781 0.113281 17.523438 0.5625 14.546875 0.5625 Z M 14.546875 0.5625 "/></g></g></g><g fill="#000000" fill-opacity="1"><g transform="translate(269.162562, 296.981627)"><g><path d="M 10.609375 -26.40625 L 0.1875 -26.40625 L 0.1875 -32.546875 L 28.546875 -32.546875 L 28.546875 -26.40625 L 18.140625 -26.40625 L 18.140625 0 L 10.609375 0 Z M 10.609375 -26.40625 "/></g></g></g><g fill="#000000" fill-opacity="1"><g transform="translate(299.614366, 296.981627)"><g><path d="M 29.0625 -6.046875 L 29.0625 0 L 3.859375 0 L 3.859375 -32.546875 L 28.453125 -32.546875 L 28.453125 -26.5 L 11.34375 -26.5 L 11.34375 -19.4375 L 26.453125 -19.4375 L 26.453125 -13.578125 L 11.34375 -13.578125 L 11.34375 -6.046875 Z M 29.0625 -6.046875 "/></g></g></g><g fill="#000000" fill-opacity="1"><g transform="translate(332.530168, 296.981627)"><g><path d="M 24.59375 0 L 18.328125 -9.0625 L 11.390625 -9.0625 L 11.390625 0 L 3.859375 0 L 3.859375 -32.546875 L 17.953125 -32.546875 C 20.835938 -32.546875 23.335938 -32.066406 25.453125 -31.109375 C 27.578125 -30.148438 29.210938 -28.785156 30.359375 -27.015625 C 31.503906 -25.242188 32.078125 -23.148438 32.078125 -20.734375 C 32.078125 -18.316406 31.492188 -16.234375 30.328125 -14.484375 C 29.171875 -12.734375 27.523438 -11.394531 25.390625 -10.46875 L 32.6875 0 Z M 24.453125 -20.734375 C 24.453125 -22.566406 23.863281 -23.96875 22.6875 -24.9375 C 21.507812 -25.914062 19.789062 -26.40625 17.53125 -26.40625 L 11.390625 -26.40625 L 11.390625 -15.0625 L 17.53125 -15.0625 C 19.789062 -15.0625 21.507812 -15.554688 22.6875 -16.546875 C 23.863281 -17.546875 24.453125 -18.941406 24.453125 -20.734375 Z M 24.453125 -20.734375 "/></g></g></g><path fill="#7f248d" d="M 231.757812 120.507812 C 227.398438 120.910156 223.289062 122.066406 219.550781 123.835938 C 234.621094 124.1875 248.476562 133.96875 253.277344 149.132812 C 260.5 171.941406 239.152344 206.277344 242.898438 234.296875 C 245.035156 208.03125 269.667969 181.042969 271.230469 158.203125 C 272.875 159.261719 274.859375 159.804688 276.957031 159.609375 C 281.929688 159.152344 285.59375 154.753906 285.132812 149.777344 C 284.675781 144.808594 280.269531 141.148438 275.296875 141.605469 C 272.890625 141.828125 270.800781 142.976562 269.328125 144.660156 C 263.976562 129.296875 248.695312 118.949219 231.757812 120.507812 " fill-opacity="1" fill-rule="nonzero"/><g clip-path="url(#c0ddc89643)"><path fill="#1082ce" d="M 230.800781 171.1875 C 228.273438 167.613281 225.214844 164.632812 221.8125 162.28125 C 229.042969 175.5 227.496094 192.382812 216.753906 204.121094 C 200.597656 221.777344 160.171875 220.46875 137.761719 237.71875 C 161.59375 226.4375 197.296875 234.261719 217.871094 224.195312 C 217.777344 226.144531 218.296875 228.136719 219.511719 229.851562 C 222.394531 233.929688 228.042969 234.898438 232.121094 232.011719 C 236.199219 229.132812 237.171875 223.492188 234.285156 219.414062 C 232.890625 217.445312 230.851562 216.207031 228.652344 215.773438 C 239.292969 203.464844 240.621094 185.066406 230.800781 171.1875 " fill-opacity="1" fill-rule="nonzero"/></g><g clip-path="url(#04e86de314)"><path fill="#40b93c" d="M 186.40625 195.695312 C 188.238281 191.71875 189.292969 187.585938 189.625 183.460938 C 181.789062 196.328125 166.382812 203.433594 150.839844 200.007812 C 127.460938 194.851562 108.382812 159.207031 82.226562 148.441406 C 103.921875 163.425781 114.992188 198.234375 134.003906 211.011719 C 132.265625 211.902344 130.800781 213.351562 129.921875 215.257812 C 127.832031 219.792969 129.8125 225.160156 134.351562 227.25 C 138.886719 229.339844 144.261719 227.359375 146.351562 222.824219 C 147.363281 220.632812 147.414062 218.25 146.691406 216.128906 C 162.679688 219.183594 179.289062 211.132812 186.40625 195.695312 " fill-opacity="1" fill-rule="nonzero"/></g><path fill="#fbc108" d="M 142.96875 169.527344 C 147.328125 169.125 151.4375 167.96875 155.179688 166.195312 C 140.109375 165.847656 126.25 156.066406 121.449219 140.902344 C 114.226562 118.09375 135.574219 83.757812 131.832031 55.738281 C 129.691406 82.003906 105.058594 108.988281 103.496094 131.832031 C 101.855469 130.773438 99.867188 130.230469 97.773438 130.425781 C 92.796875 130.882812 89.136719 135.28125 89.59375 140.253906 C 90.054688 145.226562 94.457031 148.886719 99.429688 148.425781 C 101.835938 148.207031 103.925781 147.058594 105.402344 145.375 C 110.75 160.738281 126.03125 171.085938 142.96875 169.527344 " fill-opacity="1" fill-rule="nonzero"/><g clip-path="url(#2145e8c4d4)"><path fill="#e91348" d="M 143.925781 118.847656 C 146.453125 122.421875 149.511719 125.398438 152.917969 127.75 C 145.683594 114.535156 147.230469 97.652344 157.972656 85.914062 C 174.128906 68.257812 214.558594 69.566406 236.964844 52.316406 C 213.136719 63.597656 177.433594 55.773438 156.855469 65.839844 C 156.949219 63.890625 156.425781 61.898438 155.214844 60.183594 C 152.332031 56.105469 146.6875 55.136719 142.605469 58.019531 C 138.527344 60.902344 137.558594 66.542969 140.441406 70.621094 C 141.835938 72.589844 143.878906 73.824219 146.074219 74.261719 C 135.433594 86.570312 134.105469 104.96875 143.925781 118.847656 " fill-opacity="1" fill-rule="nonzero"/></g><g clip-path="url(#1b1d268685)"><path fill="#f1471d" d="M 188.320312 94.339844 C 186.488281 98.3125 185.4375 102.449219 185.101562 106.574219 C 192.941406 93.703125 208.34375 86.601562 223.886719 90.027344 C 247.265625 95.183594 266.34375 130.828125 292.5 141.59375 C 270.804688 126.609375 259.734375 91.796875 240.722656 79.023438 C 242.460938 78.132812 243.925781 76.683594 244.804688 74.777344 C 246.898438 70.242188 244.914062 64.871094 240.375 62.78125 C 235.839844 60.695312 230.464844 62.675781 228.375 67.210938 C 227.367188 69.402344 227.3125 71.785156 228.035156 73.902344 C 212.046875 70.851562 195.441406 78.902344 188.320312 94.339844 " fill-opacity="1" fill-rule="nonzero"/></g><g fill="#ffffff" fill-opacity="1"><g transform="translate(6.770784, 298.188493)"><g><path d="M 33.640625 0 L 33.59375 -19.625 L 23.96875 -3.453125 L 20.5625 -3.453125 L 10.984375 -19.203125 L 10.984375 0 L 3.875 0 L 3.875 -32.703125 L 10.140625 -32.703125 L 22.375 -12.375 L 34.4375 -32.703125 L 40.640625 -32.703125 L 40.734375 0 Z M 33.640625 0 "/></g></g></g><g fill="#ffffff" fill-opacity="1"><g transform="translate(53.119976, 298.188493)"><g><path d="M 25.421875 -7.015625 L 10.234375 -7.015625 L 7.328125 0 L -0.421875 0 L 14.15625 -32.703125 L 21.625 -32.703125 L 36.25 0 L 28.3125 0 Z M 23.03125 -12.75 L 17.84375 -25.28125 L 12.65625 -12.75 Z M 23.03125 -12.75 "/></g></g></g><g fill="#ffffff" fill-opacity="1"><g transform="translate(90.638588, 298.188493)"><g><path d="M 33.875 -32.703125 L 33.875 0 L 27.65625 0 L 11.359375 -19.859375 L 11.359375 0 L 3.875 0 L 3.875 -32.703125 L 10.140625 -32.703125 L 26.390625 -12.84375 L 26.390625 -32.703125 Z M 33.875 -32.703125 "/></g></g></g><g fill="#ffffff" fill-opacity="1"><g transform="translate(130.119549, 298.188493)"><g><path d="M 19.53125 0.5625 C 16.195312 0.5625 13.179688 -0.160156 10.484375 -1.609375 C 7.796875 -3.054688 5.679688 -5.066406 4.140625 -7.640625 C 2.597656 -10.210938 1.828125 -13.117188 1.828125 -16.359375 C 1.828125 -19.585938 2.597656 -22.488281 4.140625 -25.0625 C 5.679688 -27.632812 7.796875 -29.644531 10.484375 -31.09375 C 13.179688 -32.539062 16.210938 -33.265625 19.578125 -33.265625 C 22.410156 -33.265625 24.96875 -32.765625 27.25 -31.765625 C 29.539062 -30.773438 31.46875 -29.34375 33.03125 -27.46875 L 28.171875 -22.984375 C 25.960938 -25.535156 23.222656 -26.8125 19.953125 -26.8125 C 17.921875 -26.8125 16.109375 -26.367188 14.515625 -25.484375 C 12.929688 -24.597656 11.695312 -23.359375 10.8125 -21.765625 C 9.925781 -20.179688 9.484375 -18.378906 9.484375 -16.359375 C 9.484375 -14.328125 9.925781 -12.515625 10.8125 -10.921875 C 11.695312 -9.335938 12.929688 -8.101562 14.515625 -7.21875 C 16.109375 -6.332031 17.921875 -5.890625 19.953125 -5.890625 C 23.222656 -5.890625 25.960938 -7.179688 28.171875 -9.765625 L 33.03125 -5.28125 C 31.46875 -3.375 29.535156 -1.921875 27.234375 -0.921875 C 24.929688 0.0664062 22.363281 0.5625 19.53125 0.5625 Z M 19.53125 0.5625 "/></g></g></g><g fill="#ffffff" fill-opacity="1"><g transform="translate(166.096314, 298.188493)"><g><path d="M 33.875 -32.703125 L 33.875 0 L 26.296875 0 L 26.296875 -13.40625 L 11.453125 -13.40625 L 11.453125 0 L 3.875 0 L 3.875 -32.703125 L 11.453125 -32.703125 L 11.453125 -19.8125 L 26.296875 -19.8125 L 26.296875 -32.703125 Z M 33.875 -32.703125 "/></g></g></g><g fill="#ffffff" fill-opacity="1"><g transform="translate(205.577269, 298.188493)"><g><path d="M 29.203125 -6.078125 L 29.203125 0 L 3.875 0 L 3.875 -32.703125 L 28.59375 -32.703125 L 28.59375 -26.625 L 11.40625 -26.625 L 11.40625 -19.53125 L 26.578125 -19.53125 L 26.578125 -13.640625 L 11.40625 -13.640625 L 11.40625 -6.078125 Z M 29.203125 -6.078125 "/></g></g></g><g fill="#ffffff" fill-opacity="1"><g transform="translate(238.657213, 298.188493)"><g><path d="M 14.625 0.5625 C 12.039062 0.5625 9.539062 0.210938 7.125 -0.484375 C 4.707031 -1.191406 2.769531 -2.101562 1.3125 -3.21875 L 3.875 -8.921875 C 5.28125 -7.890625 6.945312 -7.0625 8.875 -6.4375 C 10.800781 -5.820312 12.734375 -5.515625 14.671875 -5.515625 C 16.816406 -5.515625 18.40625 -5.832031 19.4375 -6.46875 C 20.46875 -7.101562 20.984375 -7.953125 20.984375 -9.015625 C 20.984375 -9.796875 20.675781 -10.441406 20.0625 -10.953125 C 19.457031 -11.460938 18.679688 -11.875 17.734375 -12.1875 C 16.785156 -12.5 15.5 -12.84375 13.875 -13.21875 C 11.382812 -13.8125 9.34375 -14.40625 7.75 -15 C 6.164062 -15.59375 4.804688 -16.539062 3.671875 -17.84375 C 2.535156 -19.15625 1.96875 -20.898438 1.96875 -23.078125 C 1.96875 -24.972656 2.476562 -26.691406 3.5 -28.234375 C 4.53125 -29.773438 6.082031 -31 8.15625 -31.90625 C 10.226562 -32.8125 12.757812 -33.265625 15.75 -33.265625 C 17.832031 -33.265625 19.867188 -33.015625 21.859375 -32.515625 C 23.859375 -32.015625 25.601562 -31.300781 27.09375 -30.375 L 24.765625 -24.625 C 21.742188 -26.332031 18.722656 -27.1875 15.703125 -27.1875 C 13.578125 -27.1875 12.007812 -26.84375 11 -26.15625 C 9.988281 -25.476562 9.484375 -24.578125 9.484375 -23.453125 C 9.484375 -22.328125 10.066406 -21.492188 11.234375 -20.953125 C 12.398438 -20.410156 14.179688 -19.875 16.578125 -19.34375 C 19.078125 -18.75 21.117188 -18.15625 22.703125 -17.5625 C 24.296875 -16.96875 25.660156 -16.03125 26.796875 -14.75 C 27.929688 -13.476562 28.5 -11.753906 28.5 -9.578125 C 28.5 -7.710938 27.976562 -6.007812 26.9375 -4.46875 C 25.894531 -2.925781 24.328125 -1.703125 22.234375 -0.796875 C 20.148438 0.109375 17.613281 0.5625 14.625 0.5625 Z M 14.625 0.5625 "/></g></g></g><g fill="#ffffff" fill-opacity="1"><g transform="translate(270.195318, 298.188493)"><g><path d="M 10.65625 -26.53125 L 0.1875 -26.53125 L 0.1875 -32.703125 L 28.6875 -32.703125 L 28.6875 -26.53125 L 18.21875 -26.53125 L 18.21875 0 L 10.65625 0 Z M 10.65625 -26.53125 "/></g></g></g><g fill="#ffffff" fill-opacity="1"><g transform="translate(300.798968, 298.188493)"><g><path d="M 29.203125 -6.078125 L 29.203125 0 L 3.875 0 L 3.875 -32.703125 L 28.59375 -32.703125 L 28.59375 -26.625 L 11.40625 -26.625 L 11.40625 -19.53125 L 26.578125 -19.53125 L 26.578125 -13.640625 L 11.40625 -13.640625 L 11.40625 -6.078125 Z M 29.203125 -6.078125 "/></g></g></g><g fill="#ffffff" fill-opacity="1"><g transform="translate(333.878912, 298.188493)"><g><path d="M 24.71875 0 L 18.40625 -9.109375 L 11.453125 -9.109375 L 11.453125 0 L 3.875 0 L 3.875 -32.703125 L 18.03125 -32.703125 C 20.925781 -32.703125 23.441406 -32.21875 25.578125 -31.25 C 27.710938 -30.289062 29.351562 -28.921875 30.5 -27.140625 C 31.65625 -25.367188 32.234375 -23.269531 32.234375 -20.84375 C 32.234375 -18.40625 31.648438 -16.304688 30.484375 -14.546875 C 29.316406 -12.785156 27.660156 -11.441406 25.515625 -10.515625 L 32.84375 0 Z M 24.578125 -20.84375 C 24.578125 -22.675781 23.984375 -24.082031 22.796875 -25.0625 C 21.617188 -26.039062 19.890625 -26.53125 17.609375 -26.53125 L 11.453125 -26.53125 L 11.453125 -15.140625 L 17.609375 -15.140625 C 19.890625 -15.140625 21.617188 -15.632812 22.796875 -16.625 C 23.984375 -17.625 24.578125 -19.03125 24.578125 -20.84375 Z M 24.578125 -20.84375 "/></g></g></g></svg>