<svg xmlns="http://www.w3.org/2000/svg" xmlns:xlink="http://www.w3.org/1999/xlink" width="500" zoomAndPan="magnify" viewBox="0 0 375 374.999991" height="500" preserveAspectRatio="xMidYMid meet" version="1.0"><defs><clipPath id="dd090ebf44"><path d="M 99 218 L 277 218 L 277 352.78125 L 99 352.78125 Z M 99 218 " clip-rule="nonzero"/></clipPath><clipPath id="bcaaee3580"><path d="M 98 22.03125 L 276 22.03125 L 276 157 L 98 157 Z M 98 22.03125 " clip-rule="nonzero"/></clipPath></defs><path fill="#7f248d" d="M 266.671875 143.691406 C 258.898438 144.410156 251.566406 146.472656 244.898438 149.632812 C 271.773438 150.253906 296.484375 167.699219 305.046875 194.746094 C 317.929688 235.425781 279.855469 296.664062 286.535156 346.632812 C 290.347656 299.789062 334.277344 251.660156 337.066406 210.921875 C 339.992188 212.808594 343.535156 213.777344 347.269531 213.433594 C 356.144531 212.617188 362.675781 204.769531 361.855469 195.898438 C 361.039062 187.035156 353.183594 180.507812 344.3125 181.324219 C 340.023438 181.71875 336.296875 183.765625 333.667969 186.769531 C 324.128906 159.371094 296.875 140.914062 266.671875 143.691406 " fill-opacity="1" fill-rule="nonzero"/><g clip-path="url(#dd090ebf44)"><path fill="#1082ce" d="M 264.964844 234.078125 C 260.453125 227.703125 255.003906 222.394531 248.929688 218.199219 C 261.828125 241.769531 259.070312 271.882812 239.914062 292.816406 C 211.101562 324.308594 139.003906 321.96875 99.046875 352.738281 C 141.542969 332.617188 205.210938 346.570312 241.90625 328.621094 C 241.734375 332.09375 242.667969 335.648438 244.832031 338.707031 C 249.976562 345.980469 260.042969 347.707031 267.316406 342.5625 C 274.59375 337.425781 276.320312 327.363281 271.175781 320.09375 C 268.6875 316.578125 265.050781 314.375 261.132812 313.601562 C 280.109375 291.644531 282.476562 258.832031 264.964844 234.078125 " fill-opacity="1" fill-rule="nonzero"/></g><path fill="#40b93c" d="M 185.792969 277.789062 C 189.058594 270.699219 190.9375 263.324219 191.535156 255.96875 C 177.554688 278.921875 150.085938 291.589844 122.367188 285.480469 C 80.675781 276.289062 46.652344 212.714844 0.0078125 193.511719 C 38.695312 220.234375 58.4375 282.320312 92.339844 305.105469 C 89.242188 306.691406 86.628906 309.277344 85.0625 312.679688 C 81.332031 320.769531 84.871094 330.34375 92.960938 334.070312 C 101.050781 337.796875 110.636719 334.261719 114.363281 326.171875 C 116.164062 322.265625 116.253906 318.015625 114.96875 314.234375 C 143.480469 319.683594 173.097656 305.320312 185.792969 277.789062 " fill-opacity="1" fill-rule="nonzero"/><path fill="#fbc108" d="M 108.328125 231.121094 C 116.101562 230.402344 123.433594 228.339844 130.101562 225.179688 C 103.226562 224.558594 78.515625 207.113281 69.953125 180.066406 C 57.070312 139.386719 95.144531 78.148438 88.464844 28.179688 C 84.648438 75.023438 40.722656 123.152344 37.933594 163.890625 C 35.007812 162.003906 31.464844 161.035156 27.730469 161.378906 C 18.855469 162.195312 12.324219 170.042969 13.144531 178.914062 C 13.960938 187.777344 21.816406 194.304688 30.6875 193.488281 C 34.976562 193.09375 38.703125 191.046875 41.332031 188.042969 C 50.871094 215.441406 78.125 233.898438 108.328125 231.121094 " fill-opacity="1" fill-rule="nonzero"/><g clip-path="url(#bcaaee3580)"><path fill="#e91348" d="M 110.035156 140.734375 C 114.542969 147.109375 119.996094 152.417969 126.070312 156.613281 C 113.171875 133.039062 115.929688 102.929688 135.085938 81.996094 C 163.898438 50.503906 235.996094 52.84375 275.953125 22.074219 C 233.457031 42.195312 169.789062 28.242188 133.09375 46.191406 C 133.265625 42.71875 132.328125 39.164062 130.167969 36.105469 C 125.023438 28.832031 114.957031 27.105469 107.683594 32.25 C 100.40625 37.386719 98.679688 47.449219 103.824219 54.71875 C 106.3125 58.234375 109.949219 60.4375 113.867188 61.210938 C 94.890625 83.164062 92.523438 115.980469 110.035156 140.734375 " fill-opacity="1" fill-rule="nonzero"/></g><path fill="#f1471d" d="M 189.207031 97.023438 C 185.941406 104.113281 184.0625 111.488281 183.464844 118.84375 C 197.445312 95.890625 224.914062 83.222656 252.632812 89.332031 C 294.324219 98.523438 328.347656 162.097656 374.992188 181.300781 C 336.304688 154.578125 316.5625 92.492188 282.660156 69.707031 C 285.757812 68.121094 288.371094 65.535156 289.9375 62.132812 C 293.667969 54.042969 290.128906 44.46875 282.039062 40.742188 C 273.949219 37.015625 264.363281 40.550781 260.636719 48.640625 C 258.835938 52.546875 258.746094 56.796875 260.03125 60.578125 C 231.519531 55.128906 201.902344 69.488281 189.207031 97.023438 " fill-opacity="1" fill-rule="nonzero"/></svg>